PathFileType	4	(x/y/z)	S04_P20_T21.trc
DataRate	CameraRate	NumFrames	NumMarkers	Units	OrigDataRate	OrigDataStartFrame	OrigNumFrames
240	240	6	51	mm	240	1	361
Frame#	Time	Sternum			R.Acromium			L.Acromium			Top.Head			R.ASIS			L.ASIS			R.PSIS			L.PSIS			R.Great.Tro			L.Great.Tro			R.Iliac.Crest			L.Iliac.Crest			V.Sacral			R.Thigh.Upper.Post			R.Thigh.Lower.Ant			R.Thigh.Lower.Post			R.Thigh.Upper.Ant			R.Knee.Lat			R.Knee.Med			R.Shank.Upper.Post			R.Shank.Lower.Ant			R.Shank.Lower.Post			R.Shank.Upper.Ant			R.Ankle.Lat			R.Ankle.Med			R.Heel.Upper			R.Heel.Med			R.Heel.Lat			R.Toe.Lat			R.Toe.Med			R.Toe.Tip			L.Thigh.Upper.Post			L.Thigh.Lower.Ant			L.Thigh.Lower.Post			L.Thigh.Upper.Ant			L.Knee.Lat			L.Knee.Med			L.Shank.Upper.Post			L.Shank.Lower.Ant			L.Shank.Lower.Post			L.Shank.Upper.Ant			L.Ankle.Lat			L.Ankle.Med			L.Heel.Upper			L.Heel.Med			L.Heel.Lat			L.Toe.Lat			L.Toe.Med			L.Toe.Tip			Cervical.Spine			Back			
		X1	Y1	Z1	X2	Y2	Z2	X3	Y3	Z3	X4	Y4	Z4	X5	Y5	Z5	X6	Y6	Z6	X7	Y7	Z7	X8	Y8	Z8	X9	Y9	Z9	X10	Y10	Z10	X11	Y11	Z11	X12	Y12	Z12	X13	Y13	Z13	X14	Y14	Z14	X15	Y15	Z15	X16	Y16	Z16	X17	Y17	Z17	X18	Y18	Z18	X19	Y19	Z19	X20	Y20	Z20	X21	Y21	Z21	X22	Y22	Z22	X23	Y23	Z23	X24	Y24	Z24	X25	Y25	Z25	X26	Y26	Z26	X27	Y27	Z27	X28	Y28	Z28	X29	Y29	Z29	X30	Y30	Z30	X31	Y31	Z31	X32	Y32	Z32	X33	Y33	Z33	X34	Y34	Z34	X35	Y35	Z35	X36	Y36	Z36	X37	Y37	Z37	X38	Y38	Z38	X39	Y39	Z39	X40	Y40	Z40	X41	Y41	Z41	X42	Y42	Z42	X43	Y43	Z43	X44	Y44	Z44	X45	Y45	Z45	X46	Y46	Z46	X47	Y47	Z47	X48	Y48	Z48	X49	Y49	Z49	X50	Y50	Z50	X51	Y51	Z51	

1	0	NaN	NaN	NaN	-1388.9	1499.8	456.39	-1451	1489.9	111.84	-1414.2	1824.6	266.77	NaN	NaN	NaN	NaN	NaN	NaN	-1559.5	1026.2	313.06	-1556.8	1032.1	231.24	-1447.7	910.85	472.66	-1455.3	922.69	91.76	-1430.3	1082.9	454.89	-1456.2	1091.2	119.8	-1579.4	987.16	273.85	-1509.1	666.6	455.23	-1445.3	568.78	415.42	-1529.7	578.72	440.05	-1408.3	674.8	433.34	-1534.1	507.38	434.14	-1558.6	509.38	291.5	-1656.2	304.31	420.16	NaN	NaN	NaN	-1676.1	238.79	402.71	NaN	NaN	NaN	-1698.1	125.05	380.91	-1668.6	134.66	293.47	-1762.4	96.782	326.32	-1753.8	64.847	297.02	-1762.2	64.853	360.14	-1595.1	43.757	412.22	-1553.2	43.241	294.18	-1490.5	53.956	342.82	-1401.5	682.39	108.23	NaN	NaN	NaN	-1363.7	603.03	122.66	-1338.7	695.85	88.17	-1292.1	528.39	124.36	-1274.5	521.58	252.41	-1313.3	330.95	136.24	-1219	274.1	126.01	-1284.5	262.4	143.59	-1254.1	343.4	118.89	-1175.1	120.2	145.68	-1165.6	137.6	237.2	-1230.6	62.45	200.57	-1211.4	45.966	234.66	-1217.9	38.309	174.83	-1050.7	97.055	116.85	-1014.6	126.35	225.15	-971.96	156.39	171.28	-1469.7	1549.9	296.57	-1562.1	1297.9	288.2
2	0.0041667	NaN	NaN	NaN	-1384.5	1499.5	455.93	-1446.5	1489.4	111.34	-1409.6	1824.2	266.36	NaN	NaN	NaN	NaN	NaN	NaN	-1554.4	1025.7	312.67	-1551.7	1031.6	230.85	-1442.9	910.49	472.35	-1450.1	922.23	91.516	-1424.8	1082.3	454.56	-1451.3	1090.6	119.46	-1574.3	986.67	273.45	-1504	666.18	454.98	-1440.4	568.32	415.38	-1524.7	578.31	439.87	-1403.2	674.41	433.07	-1528.2	506.43	433.77	-1553.1	508.86	291.8	-1653.3	305.16	420.29	NaN	NaN	NaN	-1673.8	239.8	402.92	NaN	NaN	NaN	-1696.6	125.87	381.14	-1668	135.81	293.86	-1761.8	98.49	326.7	-1753.3	66.678	297.23	-1761.8	66.467	360.37	-1594.9	43.715	412.31	-1553.1	43.325	294.24	-1490.2	53.661	342.83	-1396.3	681.99	108.09	NaN	NaN	NaN	-1358.6	602.56	122.58	-1333.3	695.4	88.38	-1287.1	527.78	124.57	-1269.9	521.07	252.51	-1309.5	330.52	136.19	-1215.5	272.99	126.58	-1280.6	261.5	143.6	-1249.8	342.53	119.4	-1172.7	119.12	146.36	-1163.7	136.32	237.96	-1228.8	62.07	201.01	-1210.1	45.281	235.01	-1216.2	37.797	175.06	-1048.4	95.394	118.38	-1012.8	124.18	226.94	-969.67	154.13	173.42	-1465.2	1549.5	296.07	-1557.3	1297.3	287.82
3	0.0083333	NaN	NaN	NaN	-1379.8	1499.3	455.44	-1441.9	1488.9	110.81	-1404.9	1823.9	265.92	NaN	NaN	NaN	NaN	NaN	NaN	-1549	1025.1	312.26	-1546.4	1031.1	230.43	-1428.2	907.88	470.05	-1444.5	921.76	91.258	-1419	1081.6	454.21	-1446.1	1090	119.08	-1569	986.17	273.03	-1498.6	665.72	454.73	-1435.1	567.83	415.34	-1519.4	577.87	439.68	-1397.9	674	432.81	-1522	505.46	433.41	-1547.3	508.33	292.08	-1650.3	306.07	420.42	NaN	NaN	NaN	-1671.5	240.89	403.13	NaN	NaN	NaN	-1695.1	126.8	381.39	-1667.3	137.04	294.26	-1761.1	100.34	327.1	-1752.8	68.659	297.45	-1761.3	68.225	360.61	-1594.7	43.679	412.4	-1553	43.415	294.29	-1489.8	53.347	342.83	-1390.9	681.57	107.94	NaN	NaN	NaN	-1353.3	602.06	122.5	-1327.7	694.94	88.604	-1281.9	527.15	124.78	-1265.2	520.54	252.62	-1305.4	330.09	136.12	-1211.8	271.85	127.18	-1276.6	260.58	143.6	-1245.3	341.62	119.93	-1170.4	118	147.05	-1161.8	134.98	238.74	-1227.1	61.717	201.44	-1208.7	44.607	235.36	-1214.6	37.303	175.28	-1045.9	93.63	119.98	-1011	121.88	228.79	-967.33	151.7	175.66	-1460.5	1549	295.55	-1552.4	1296.7	287.42
4	0.0125	NaN	NaN	NaN	-1375	1499	454.93	-1437.1	1488.4	110.26	-1399.9	1823.5	265.47	NaN	NaN	NaN	NaN	NaN	NaN	-1543.4	1024.6	311.82	-1540.8	1030.6	229.99	NaN	NaN	NaN	-1438.8	921.27	90.987	-1413.1	1081	453.84	-1440.7	1089.4	118.69	-1563.4	985.66	272.58	-1492.9	665.23	454.47	-1429.5	567.34	415.31	-1513.8	577.39	439.49	-1392.3	673.58	432.58	-1515.7	504.5	433.07	-1541.4	507.79	292.34	-1647.1	307.04	420.56	NaN	NaN	NaN	-1669	242.05	403.36	NaN	NaN	NaN	-1693.5	127.84	381.67	-1666.5	138.34	294.68	-1760.4	102.35	327.51	-1752.2	70.796	297.68	-1760.9	70.139	360.86	-1594.5	43.653	412.49	-1552.9	43.512	294.35	-1489.5	53.017	342.82	-1385.3	681.15	107.79	NaN	NaN	NaN	-1347.8	601.54	122.42	-1321.9	694.46	88.843	-1276.5	526.5	125	-1260.4	519.98	252.72	-1301.3	329.64	136.03	-1208	270.67	127.8	-1272.6	259.66	143.59	-1240.7	340.69	120.48	-1168	116.84	147.75	-1159.8	133.61	239.53	-1225.3	61.402	201.85	-1207.4	43.958	235.7	-1212.9	36.84	175.49	-1043.5	91.767	121.63	-1009.3	119.44	230.71	-964.95	149.1	177.97	-1455.7	1548.6	294.99	-1547.2	1296.1	286.98
5	0.016667	NaN	NaN	NaN	-1370.1	1498.8	454.39	-1432.2	1487.8	109.69	-1394.9	1823.1	265	NaN	NaN	NaN	NaN	NaN	NaN	-1537.6	1024.1	311.36	-1535.1	1030.1	229.52	NaN	NaN	NaN	-1432.9	920.79	90.702	-1407.1	1080.4	453.46	-1435.2	1088.8	118.27	-1557.7	985.16	272.1	-1487	664.71	454.2	-1423.7	566.82	415.3	-1507.9	576.87	439.3	-1386.5	673.14	432.37	-1509.1	503.54	432.75	-1535.3	507.26	292.56	-1643.7	308.07	420.71	NaN	NaN	NaN	-1666.3	243.29	403.6	NaN	NaN	NaN	-1691.9	129	381.98	-1665.6	139.72	295.11	-1759.5	104.51	327.94	-1751.6	73.098	297.91	-1760.3	72.218	361.12	-1594.3	43.644	412.57	-1552.8	43.617	294.4	-1489.1	52.671	342.8	-1379.5	680.72	107.63	NaN	NaN	NaN	-1342.1	601.02	122.34	-1315.9	693.97	89.096	-1271	525.84	125.23	-1255.4	519.39	252.83	-1297.1	329.2	135.92	-1204.1	269.48	128.44	-1268.5	258.74	143.58	-1236	339.73	121.03	-1165.6	115.67	148.46	-1157.9	132.2	240.33	-1223.5	61.136	202.23	-1206.1	43.346	236.01	-1211.3	36.42	175.7	-1041.1	89.811	123.31	-1007.5	116.87	232.66	-962.56	146.35	180.33	-1450.7	1548.1	294.42	-1542	1295.4	286.52
6	0.020833	NaN	NaN	NaN	-1365	1498.5	453.83	-1427.1	1487.3	109.09	-1389.7	1822.8	264.52	NaN	NaN	NaN	NaN	NaN	NaN	-1531.7	1023.5	310.88	-1529.3	1029.6	229.03	NaN	NaN	NaN	-1426.9	920.3	90.406	-1400.9	1079.8	453.06	-1429.5	1088.2	117.83	-1551.9	984.68	271.61	-1480.9	664.16	453.93	-1417.6	566.3	415.3	-1501.8	576.32	439.11	-1380.6	672.69	432.2	-1502.4	502.6	432.47	-1529	506.73	292.75	-1640.2	309.15	420.87	NaN	NaN	NaN	-1663.4	244.6	403.84	NaN	NaN	NaN	-1690.3	130.29	382.31	-1664.5	141.18	295.55	-1758.6	106.85	328.38	-1750.9	75.575	298.16	-1759.7	74.474	361.38	-1594.1	43.656	412.66	-1552.7	43.735	294.46	-1488.8	52.31	342.77	-1373.6	680.29	107.47	NaN	NaN	NaN	-1336.3	600.48	122.27	-1309.7	693.47	89.36	-1265.5	525.18	125.46	-1250.4	518.78	252.94	-1292.8	328.75	135.8	-1200.2	268.27	129.09	-1264.4	257.84	143.54	-1231.3	338.77	121.58	-1163.1	114.48	149.15	-1156	130.78	241.12	-1221.8	60.929	202.58	-1204.9	42.784	236.31	-1209.8	36.052	175.88	-1038.7	87.768	125.02	-1005.8	114.19	234.64	-960.18	143.44	182.72	-1445.6	1547.6	293.82	-1536.6	1294.8	286.02
